<?xml version="1.0" standalone="no"?>
<!DOCTYPE svg PUBLIC "-//W3C//DTD SVG 20010904//EN"
 "http://www.w3.org/TR/2001/REC-SVG-20010904/DTD/svg10.dtd">
<svg version="1.0" xmlns="http://www.w3.org/2000/svg"
 width="746.000000pt" height="774.000000pt" viewBox="0 0 746.000000 774.000000"
 preserveAspectRatio="xMidYMid meet">

<g transform="translate(0.000000,774.000000) scale(0.100000,-0.100000)"
fill="#000000" stroke="none">
<path d="M0 3870 l0 -3870 3730 0 3730 0 0 3870 0 3870 -3730 0 -3730 0 0
-3870z m4007 3170 c917 -74 1738 -522 2291 -1248 321 -422 529 -907 611 -1427
185 -1170 -283 -2336 -1224 -3048 -695 -526 -1559 -742 -2430 -606 -945 147
-1782 725 -2264 1564 -480 833 -552 1858 -196 2765 48 122 166 359 237 476
481 789 1292 1340 2193 1489 244 41 543 54 782 35z"/>
<path d="M2490 3836 l0 -1716 468 0 c370 0 486 3 561 15 333 54 535 271 586
630 21 147 21 1993 0 2140 -28 194 -91 331 -205 445 -84 84 -176 136 -309 173
-72 20 -103 21 -588 24 l-513 4 0 -1715z m902 1220 c113 -26 169 -100 188
-247 14 -114 14 -1834 -1 -1949 -19 -153 -86 -232 -212 -251 -34 -5 -124 -9
-199 -9 l-138 0 0 1235 0 1235 153 0 c92 0 175 -6 209 -14z"/>
<path d="M4490 3835 l0 -1715 270 0 270 0 0 1715 0 1715 -270 0 -270 0 0
-1715z"/>
</g>
</svg>
